<svg xmlns="http://www.w3.org/2000/svg" width="162" height="100" xmlns:v="https://vecta.io/nano"><path d="M89.847 69.223H67.2L55.879 49.612 67.2 30h22.647l11.324 19.612-11.324 19.611h0zM68.235 49.612l5.146 8.911h10.288l5.146-8.911-5.146-8.912H73.382zm59.465 8.056c-.463-.166-.888-.423-1.25-.757a3.47 3.47 0 0 1-.918-1.217 4.12 4.12 0 0 1-.346-1.767V45.3c-.012-.599.106-1.194.346-1.744.212-.482.525-.913.918-1.263a3.91 3.91 0 0 1 1.25-.734 4.08 4.08 0 0 1 2.824 0c.464.168.895.416 1.273.734a3.83 3.83 0 0 1 .895 1.263c.24.55.358 1.145.346 1.744v.827H130.7V45.3c.04-.466-.133-.926-.47-1.251a1.74 1.74 0 0 0-2.227 0c-.338.325-.511.784-.472 1.251v8.631c-.039.465.134.923.469 1.247.646.535 1.581.535 2.227 0 .337-.325.51-.785.47-1.251v-3.075h-1.859v-2.067h4.2v5.143a4.12 4.12 0 0 1-.346 1.767c-.209.464-.514.879-.895 1.217-.372.331-.804.588-1.273.757-.911.338-1.913.338-2.824 0zm10.008 0a3.67 3.67 0 0 1-1.25-.757c-.392-.333-.705-.748-.918-1.216a4.14 4.14 0 0 1-.346-1.768V45.3c-.011-.599.107-1.194.346-1.744a3.67 3.67 0 0 1 .918-1.263 3.9 3.9 0 0 1 1.25-.734 4.08 4.08 0 0 1 2.824 0c.464.168.895.417 1.274.734.38.356.685.786.894 1.263.239.55.357 1.145.346 1.744v8.631c.016.608-.102 1.211-.346 1.768-.21.463-.514.877-.894 1.216-.373.331-.805.587-1.274.757a4.07 4.07 0 0 1-2.824 0zm.3-13.622a1.56 1.56 0 0 0-.472 1.251v8.631a1.56 1.56 0 0 0 .472 1.251c.645.536 1.581.536 2.226 0a1.56 1.56 0 0 0 .471-1.251V45.3c.038-.466-.135-.926-.471-1.251-.645-.536-1.581-.536-2.226 0zM117.7 57.668a3.67 3.67 0 0 1-1.25-.757c-.392-.333-.705-.748-.918-1.216a4.14 4.14 0 0 1-.346-1.768V45.3c-.011-.599.107-1.194.346-1.744a3.68 3.68 0 0 1 .918-1.263c.367-.32.791-.569 1.25-.734a4.08 4.08 0 0 1 2.824 0c.464.168.896.417 1.274.734.38.356.685.786.894 1.263.24.55.358 1.145.346 1.744v8.631a4.13 4.13 0 0 1-.346 1.768 3.62 3.62 0 0 1-.894 1.216c-.373.331-.805.588-1.274.757a4.07 4.07 0 0 1-2.824 0zm.3-13.622a1.56 1.56 0 0 0-.472 1.251v8.631a1.56 1.56 0 0 0 .472 1.25c.645.536 1.581.536 2.226 0a1.56 1.56 0 0 0 .471-1.251V45.3c.038-.466-.135-.926-.471-1.251-.645-.536-1.581-.536-2.226 0zm-11.4 13.738V41.441h2.342v14h4.638v2.341zm-60.16 0v-14.14h-2.71v-2.2h7.76v2.2h-2.709v14.14zm-5.3 0l-2.04-5.509-2.02 5.509H34.6l3.3-8.563-3.053-7.78h2.479l1.774 4.843 1.789-4.843h2.48l-3.123 7.78 3.375 8.563zm-14.117 0V41.44H34v2.2h-4.637v4.8H33.4v2.2h-4.037v4.8H34v2.341zm-6.313 0v-14.14H18v-2.2h7.759v2.2H23.05v14.139z" fill="#b6b9bd"/></svg>